<svg width="167" height="160" viewBox="0 0 167 160" fill="none" xmlns="http://www.w3.org/2000/svg">
<rect width="167" height="160" rx="25" fill="#DFDFDF"/>
<g clip-path="url(#clip0_110_1928)">
<path d="M69.8335 68.4904C69.8361 68.1293 69.9849 67.7836 70.2479 67.5282C70.5108 67.2727 70.8668 67.1279 71.2388 67.125H96.7615C97.5378 67.125 98.1668 67.7369 98.1668 68.4904V90.5096C98.1642 90.8707 98.0154 91.2164 97.7524 91.4718C97.4895 91.7273 97.1335 91.8721 96.7615 91.875H71.2388C70.866 91.8746 70.5085 91.7306 70.245 91.4746C69.9815 91.2186 69.8335 90.8715 69.8335 90.5096V68.4904ZM84.0002 83.625C82.873 83.625 81.792 83.1904 80.995 82.4168C80.1979 81.6432 79.7502 80.594 79.7502 79.5C79.7502 78.406 80.1979 77.3568 80.995 76.5832C81.792 75.8096 82.873 75.375 84.0002 75.375C85.1273 75.375 86.2083 75.8096 87.0054 76.5832C87.8024 77.3568 88.2502 78.406 88.2502 79.5C88.2502 80.594 87.8024 81.6432 87.0054 82.4168C86.2083 83.1904 85.1273 83.625 84.0002 83.625ZM84.0002 86.375C85.8788 86.375 87.6805 85.6507 89.0088 84.3614C90.3372 83.072 91.0835 81.3234 91.0835 79.5C91.0835 77.6766 90.3372 75.928 89.0088 74.6386C87.6805 73.3493 85.8788 72.625 84.0002 72.625C82.1215 72.625 80.3199 73.3493 78.9915 74.6386C77.6631 75.928 76.9168 77.6766 76.9168 79.5C76.9168 81.3234 77.6631 83.072 78.9915 84.3614C80.3199 85.6507 82.1215 86.375 84.0002 86.375ZM92.5002 69.875V72.625H95.3335V69.875H92.5002Z" fill="black"/>
</g>
<defs>
<clipPath id="clip0_110_1928">
<rect width="34" height="33" fill="white" transform="translate(67 63)"/>
</clipPath>
</defs>
</svg>
