<svg width="29" height="30" viewBox="0 0 29 30" fill="none" xmlns="http://www.w3.org/2000/svg">
<path d="M4.50014 6.81939L0.0410156 2.36164L1.98664 0.416016L6.44439 4.87514H27.4021C27.6165 4.87513 27.8278 4.92521 28.0193 5.0214C28.2109 5.11758 28.3772 5.2572 28.5052 5.42912C28.6332 5.60104 28.7192 5.80049 28.7564 6.01156C28.7936 6.22263 28.7809 6.43946 28.7194 6.64477L25.4194 17.6448C25.3345 17.9281 25.1605 18.1766 24.9232 18.3532C24.6859 18.5298 24.3979 18.6252 24.1021 18.6251H7.25014V21.3751H22.3751V24.1251H5.87514C5.51047 24.1251 5.16073 23.9803 4.90287 23.7224C4.64501 23.4646 4.50014 23.1148 4.50014 22.7501V6.81939ZM6.56264 29.6251C6.01563 29.6251 5.49103 29.4078 5.10423 29.021C4.71744 28.6343 4.50014 28.1096 4.50014 27.5626C4.50014 27.0156 4.71744 26.491 5.10423 26.1042C5.49103 25.7174 6.01563 25.5001 6.56264 25.5001C7.10965 25.5001 7.63425 25.7174 8.02105 26.1042C8.40784 26.491 8.62514 27.0156 8.62514 27.5626C8.62514 28.1096 8.40784 28.6343 8.02105 29.021C7.63425 29.4078 7.10965 29.6251 6.56264 29.6251ZM23.0626 29.6251C22.5156 29.6251 21.991 29.4078 21.6042 29.021C21.2174 28.6343 21.0001 28.1096 21.0001 27.5626C21.0001 27.0156 21.2174 26.491 21.6042 26.1042C21.991 25.7174 22.5156 25.5001 23.0626 25.5001C23.6096 25.5001 24.1343 25.7174 24.521 26.1042C24.9078 26.491 25.1251 27.0156 25.1251 27.5626C25.1251 28.1096 24.9078 28.6343 24.521 29.021C24.1343 29.4078 23.6096 29.6251 23.0626 29.6251Z" fill="white"/>
</svg>
