<svg width="21" height="20" viewBox="0 0 21 20" fill="none" xmlns="http://www.w3.org/2000/svg">
<path d="M11.8499 1.40393L11.8503 1.40422L17.6101 5.43412C18.039 5.73431 18.4592 6.23845 18.7729 6.83929C19.0865 7.4401 19.2602 8.07359 19.2602 8.59969V15.3797C19.2602 17.5155 17.526 19.2497 15.3902 19.2497H4.61023C2.47656 19.2497 0.740234 17.5076 0.740234 15.3697V8.46969C0.740234 7.98304 0.897065 7.38192 1.1831 6.80099C1.46893 6.22047 1.85184 5.72501 2.24151 5.42107L2.24167 5.42094L7.2496 1.51255C7.24994 1.51229 7.25027 1.51203 7.25061 1.51177C8.50088 0.543846 10.5495 0.492813 11.8499 1.40393ZM10.0002 17.4997C10.8244 17.4997 11.5002 16.8239 11.5002 15.9997V12.9997C11.5002 12.1755 10.8244 11.4997 10.0002 11.4997C9.17602 11.4997 8.50023 12.1755 8.50023 12.9997V15.9997C8.50023 16.8239 9.17602 17.4997 10.0002 17.4997Z" stroke="#9DB2CE" stroke-width="1.5"/>
</svg>
