<?xml version="1.0" standalone="no"?>
<!DOCTYPE svg PUBLIC "-//W3C//DTD SVG 20010904//EN"
 "http://www.w3.org/TR/2001/REC-SVG-20010904/DTD/svg10.dtd">
<svg version="1.0" xmlns="http://www.w3.org/2000/svg"
 width="48.000000pt" height="48.000000pt" viewBox="0 0 48.000000 48.000000"
 preserveAspectRatio="xMidYMid meet">

<g transform="translate(0.000000,48.000000) scale(0.100000,-0.100000)"
fill="#9DB2CE" stroke="none">
<path d="M180 471 c-112 -36 -174 -119 -174 -231 0 -159 139 -267 295 -230 97
23 179 129 179 230 0 83 -55 172 -132 211 -45 23 -129 33 -168 20z m148 -62
c99 -48 133 -176 73 -271 -95 -150 -332 -95 -349 81 -6 62 10 109 51 151 61
63 145 77 225 39z"/>
<path d="M210 315 l0 -45 -45 0 c-45 0 -45 0 -45 -35 0 -35 0 -35 45 -35 l45
0 0 -46 c0 -45 0 -45 33 -42 30 3 32 6 35 45 3 42 3 42 45 45 39 3 42 5 45 36
3 32 3 32 -42 32 l-46 0 0 45 c0 45 0 45 -35 45 -35 0 -35 0 -35 -45z"/>
</g>
</svg>
