<svg width="20" height="20" viewBox="0 0 20 20" fill="none" xmlns="http://www.w3.org/2000/svg">
<path d="M7.95405 0.210703C9.30298 -0.0721631 10.6958 -0.0728441 12.045 0.208703C12.1349 0.80199 12.3574 1.36739 12.6958 1.86288C13.0343 2.35837 13.4801 2.77121 14 3.0707C14.5196 3.37123 15.1002 3.55077 15.6987 3.59595C16.2973 3.64114 16.8983 3.55082 17.457 3.3317C18.3753 4.35976 19.0709 5.56674 19.5 6.8767C19.0314 7.25128 18.6532 7.72665 18.3935 8.2675C18.1338 8.80834 17.9993 9.40075 18 10.0007C18 11.2647 18.586 12.3917 19.502 13.1247C19.0704 14.4336 18.3739 15.6396 17.456 16.6677C16.8974 16.4487 16.2966 16.3585 15.6983 16.4037C15.0999 16.4489 14.5195 16.6283 14 16.9287C13.4805 17.2281 13.0351 17.6407 12.6968 18.1358C12.3585 18.6309 12.1361 19.1959 12.046 19.7887C10.6973 20.0722 9.30439 20.0736 7.95505 19.7927C7.86559 19.1989 7.64335 18.6329 7.30487 18.1368C6.96639 17.6408 6.52038 17.2275 6.00005 16.9277C5.48041 16.6273 4.89975 16.448 4.30124 16.403C3.70272 16.3579 3.10176 16.4484 2.54305 16.6677C1.62465 15.6393 0.929052 14.432 0.500047 13.1217C0.96844 12.7473 1.34651 12.2723 1.60618 11.7318C1.86586 11.1913 2.00048 10.5993 2.00005 9.9997C2.00054 9.39958 1.86575 8.80707 1.60571 8.26622C1.34568 7.72537 0.96707 7.25008 0.498047 6.8757C0.929715 5.56683 1.62616 4.3608 2.54405 3.3327C3.1027 3.55166 3.70352 3.6419 4.30184 3.59671C4.90017 3.55153 5.48062 3.37208 6.00005 3.0717C6.51959 2.7723 6.96503 2.35973 7.30331 1.86461C7.64158 1.36949 7.864 0.803545 7.95405 0.210703ZM10 13.0007C10.7957 13.0007 11.5588 12.6846 12.1214 12.122C12.684 11.5594 13 10.7964 13 10.0007C13 9.20505 12.684 8.44199 12.1214 7.87938C11.5588 7.31677 10.7957 7.0007 10 7.0007C9.2044 7.0007 8.44134 7.31677 7.87873 7.87938C7.31612 8.44199 7.00005 9.20505 7.00005 10.0007C7.00005 10.7964 7.31612 11.5594 7.87873 12.122C8.44134 12.6846 9.2044 13.0007 10 13.0007Z" fill="#1966FC"/>
</svg>
