<svg width="55" height="54" viewBox="0 0 55 54" fill="none" xmlns="http://www.w3.org/2000/svg">
<rect x="1.25" y="0.75" width="52.5" height="52.5" rx="26.25" stroke="#9DB2CE" stroke-width="1.5"/>
<path d="M18.5098 26.2207V30.7107C18.5098 35.2007 20.3098 37.0007 24.7998 37.0007H30.1898C34.6798 37.0007 36.4798 35.2007 36.4798 30.7107V26.2207" stroke="#9DB2CE" stroke-width="1.5" stroke-linecap="round" stroke-linejoin="round"/>
<path d="M27.5 27C29.33 27 30.68 25.51 30.5 23.68L29.84 17H25.17L24.5 23.68C24.32 25.51 25.67 27 27.5 27Z" stroke="#9DB2CE" stroke-width="1.5" stroke-linecap="round" stroke-linejoin="round"/>
<path d="M33.8098 27C35.8298 27 37.3098 25.36 37.1098 23.35L36.8298 20.6C36.4698 18 35.4698 17 32.8498 17H29.7998L30.4998 24.01C30.6698 25.66 32.1598 27 33.8098 27Z" stroke="#9DB2CE" stroke-width="1.5" stroke-linecap="round" stroke-linejoin="round"/>
<path d="M21.1399 27C22.7899 27 24.2799 25.66 24.4399 24.01L24.6599 21.8L25.1399 17H22.0899C19.4699 17 18.4699 18 18.1099 20.6L17.8399 23.35C17.6399 25.36 19.1199 27 21.1399 27Z" stroke="#9DB2CE" stroke-width="1.5" stroke-linecap="round" stroke-linejoin="round"/>
<path d="M27.5 32C25.83 32 25 32.83 25 34.5V37H30V34.5C30 32.83 29.17 32 27.5 32Z" stroke="#9DB2CE" stroke-width="1.5" stroke-linecap="round" stroke-linejoin="round"/>
</svg>
