<svg width="25" height="24" viewBox="0 0 25 24" fill="none" xmlns="http://www.w3.org/2000/svg">
<path d="M22.75 12V17C22.75 20 20.75 22 17.75 22H7.75C4.75 22 2.75 20 2.75 17V12C2.75 9.28 4.39 7.38 6.94 7.06C7.2 7.02 7.47 7 7.75 7H17.75C18.01 7 18.26 7.00999 18.5 7.04999C21.08 7.34999 22.75 9.26 22.75 12Z" stroke="#9DB2CE" stroke-width="1.5" stroke-linecap="round" stroke-linejoin="round"/>
<path d="M18.5014 7.05C18.2614 7.01 18.0114 7.00001 17.7514 7.00001H7.75141C7.47141 7.00001 7.20141 7.02001 6.94141 7.06001C7.08141 6.78001 7.28141 6.52001 7.52141 6.28001L10.7714 3.02C12.1414 1.66 14.3614 1.66 15.7314 3.02L17.4814 4.79002C18.1214 5.42002 18.4614 6.22 18.5014 7.05Z" stroke="#9DB2CE" stroke-width="1.5" stroke-linecap="round" stroke-linejoin="round"/>
<path d="M22.75 12.5H19.75C18.65 12.5 17.75 13.4 17.75 14.5C17.75 15.6 18.65 16.5 19.75 16.5H22.75" stroke="#9DB2CE" stroke-width="1.5" stroke-linecap="round" stroke-linejoin="round"/>
</svg>
